<svg width="14" height="14" viewBox="0 0 14 14" fill="none" xmlns="http://www.w3.org/2000/svg">
<path d="M2.4315 1.20484H3.22503V0.652379C3.22503 0.419387 3.35145 0.203985 3.55666 0.0874893C3.76172 -0.0291584 4.01458 -0.0291584 4.21963 0.0874893C4.42484 0.203985 4.55126 0.419383 4.55126 0.652379V1.20469L9.44901 1.20484V0.652376C9.44901 0.419383 9.57543 0.203982 9.78064 0.0874857C9.9857 -0.0291619 10.2386 -0.0291619 10.4436 0.0874857C10.6488 0.203982 10.7752 0.419379 10.7752 0.652376V1.20468L11.5688 1.20484C12.2135 1.20484 12.8319 1.45679 13.2879 1.90533C13.7439 2.35403 14 2.96245 14 3.59681V11.6079C14 12.2422 13.7439 12.8506 13.2879 13.2994C12.8319 13.7479 12.2135 14 11.5688 14H2.43123C1.78646 14 1.16805 13.7479 0.712144 13.2994C0.256076 12.8506 -9.53674e-07 12.2422 -9.53674e-07 11.6079V3.59681C-9.53674e-07 2.96245 0.256088 2.35403 0.712144 1.90533C1.16805 1.45678 1.78646 1.20484 2.43123 1.20484L2.4315 1.20484ZM11.5667 2.50968H10.7731V3.49702L10.7733 3.49687C10.7733 3.72986 10.6469 3.94526 10.4417 4.06176C10.2365 4.17841 9.98374 4.17841 9.77854 4.06176C9.57348 3.94526 9.44706 3.72987 9.44706 3.49687V2.50953H4.55128V3.49687C4.55128 3.72986 4.42486 3.94526 4.21965 4.06176C4.0146 4.17841 3.76173 4.17841 3.55669 4.06176C3.35148 3.94526 3.22505 3.72987 3.22505 3.49687V2.50953H2.43152C2.13843 2.50953 1.85736 2.62405 1.65015 2.82807C1.44293 3.03194 1.32638 3.30846 1.32638 3.59683V5.57575H12.6742V3.59683C12.6742 3.30847 12.5576 3.03194 12.3504 2.82807C12.1432 2.62405 11.8622 2.50953 11.5691 2.50953L11.5667 2.50968ZM2.4315 12.6953H11.569C11.8621 12.6953 12.1432 12.5808 12.3504 12.3769C12.5576 12.1729 12.6742 11.8964 12.6742 11.608V6.88061H1.32636V11.608C1.32636 11.8964 1.44292 12.1729 1.65013 12.3769C1.85735 12.5808 2.1384 12.6953 2.4315 12.6953Z" fill="#3481E8"/>
</svg>
