<svg width="24" height="24" viewBox="0 0 24 24" fill="none" xmlns="http://www.w3.org/2000/svg">
<path opacity="0.4" d="M12.2995 0C5.88281 0 0.632812 5.23833 0.632812 11.69C0.632812 17.5233 4.90281 22.365 10.4795 23.24V15.0733H7.51615V11.69H10.4795V9.11167C10.4795 6.18333 12.2178 4.57333 14.8895 4.57333C16.1611 4.57333 17.4911 4.795 17.4911 4.795V7.67667H16.0211C14.5745 7.67667 14.1195 8.575 14.1195 9.49667V11.69H17.3628L16.8378 15.0733H14.1195V23.24C16.8687 22.8058 19.3721 21.4031 21.1777 19.2851C22.9834 17.167 23.9724 14.4733 23.9661 11.69C23.9661 5.23833 18.7161 0 12.2995 0Z" fill="#2B306A"/>
</svg>
