<svg width="23" height="23" viewBox="0 0 23 23" fill="none" xmlns="http://www.w3.org/2000/svg">
<path opacity="0.4" d="M11.6953 6.37012C10.657 6.37012 9.64193 6.67802 8.77857 7.2549C7.91521 7.83178 7.24231 8.65172 6.84495 9.61103C6.44759 10.5703 6.34362 11.6259 6.54619 12.6443C6.74876 13.6627 7.24878 14.5982 7.983 15.3324C8.71723 16.0667 9.65269 16.5667 10.6711 16.7692C11.6895 16.9718 12.7451 16.8678 13.7044 16.4705C14.6637 16.0731 15.4837 15.4002 16.0605 14.5369C16.6374 13.6735 16.9453 12.6585 16.9453 11.6201C16.9453 10.2277 16.3922 8.89237 15.4076 7.90781C14.4231 6.92324 13.0877 6.37012 11.6953 6.37012ZM11.6953 15.1201C11.0031 15.1201 10.3264 14.9148 9.75082 14.5303C9.17525 14.1457 8.72664 13.5991 8.46173 12.9595C8.19683 12.32 8.12752 11.6162 8.26256 10.9373C8.39761 10.2584 8.73095 9.63473 9.22044 9.14524C9.70992 8.65576 10.3336 8.32242 11.0125 8.18737C11.6914 8.05232 12.3952 8.12163 13.0347 8.38654C13.6742 8.65145 14.2209 9.10005 14.6055 9.67562C14.99 10.2512 15.1953 10.9279 15.1953 11.6201C15.1924 12.5475 14.8228 13.4361 14.167 14.0918C13.5112 14.7476 12.6227 15.1172 11.6953 15.1201ZM16.5078 0.682617H6.88281C5.25836 0.682617 3.70044 1.32793 2.55178 2.47659C1.40312 3.62525 0.757813 5.18317 0.757812 6.80762V16.4326C0.757813 18.0571 1.40312 19.615 2.55178 20.7636C3.70044 21.9123 5.25836 22.5576 6.88281 22.5576H16.5078C18.1323 22.5576 19.6902 21.9123 20.8388 20.7636C21.9875 19.615 22.6328 18.0571 22.6328 16.4326V6.80762C22.6328 5.18317 21.9875 3.62525 20.8388 2.47659C19.6902 1.32793 18.1323 0.682617 16.5078 0.682617ZM20.8828 16.4326C20.8828 17.0072 20.7696 17.5761 20.5498 18.1069C20.3299 18.6377 20.0077 19.12 19.6014 19.5262C19.1951 19.9325 18.7129 20.2547 18.1821 20.4746C17.6513 20.6945 17.0823 20.8076 16.5078 20.8076H6.88281C6.30828 20.8076 5.73937 20.6945 5.20857 20.4746C4.67777 20.2547 4.19548 19.9325 3.78922 19.5262C3.38296 19.12 3.0607 18.6377 2.84084 18.1069C2.62098 17.5761 2.50781 17.0072 2.50781 16.4326V6.80762C2.50781 5.64729 2.96875 4.5345 3.78922 3.71403C4.60969 2.89355 5.72249 2.43262 6.88281 2.43262H16.5078C17.0823 2.43262 17.6513 2.54578 18.1821 2.76564C18.7129 2.98551 19.1951 3.30777 19.6014 3.71403C20.0077 4.12028 20.3299 4.60258 20.5498 5.13338C20.7696 5.66418 20.8828 6.23308 20.8828 6.80762V16.4326ZM18.6953 5.93262C18.6953 6.1922 18.6183 6.44596 18.4741 6.6618C18.3299 6.87764 18.1249 7.04587 17.8851 7.14521C17.6453 7.24455 17.3814 7.27054 17.1268 7.2199C16.8722 7.16925 16.6383 7.04425 16.4547 6.86069C16.2712 6.67714 16.1462 6.44327 16.0955 6.18867C16.0449 5.93407 16.0709 5.67017 16.1702 5.43035C16.2696 5.19052 16.4378 4.98553 16.6536 4.84131C16.8695 4.69709 17.1232 4.62012 17.3828 4.62012C17.7309 4.62012 18.0647 4.7584 18.3109 5.00454C18.557 5.25068 18.6953 5.58452 18.6953 5.93262Z" fill="#2B306A"/>
</svg>
