<svg width="26" height="18" viewBox="0 0 26 18" fill="none" xmlns="http://www.w3.org/2000/svg">
<path opacity="0.4" d="M24.9493 2.886C24.8098 2.36803 24.5368 1.89577 24.1575 1.51648C23.7782 1.13718 23.306 0.864166 22.788 0.724746C20.8805 0.208496 13.2155 0.208496 13.2155 0.208496C13.2155 0.208496 5.5505 0.208496 3.643 0.724746C3.12504 0.864166 2.65278 1.13718 2.27348 1.51648C1.89419 1.89577 1.62117 2.36803 1.48175 2.886C1.12558 4.83135 0.952739 6.80584 0.965502 8.7835C0.952739 10.7611 1.12558 12.7356 1.48175 14.681C1.62117 15.199 1.89419 15.6712 2.27348 16.0505C2.65278 16.4298 3.12504 16.7028 3.643 16.8422C5.5505 17.3585 13.2155 17.3585 13.2155 17.3585C13.2155 17.3585 20.8805 17.3585 22.788 16.8422C23.306 16.7028 23.7782 16.4298 24.1575 16.0505C24.5368 15.6712 24.8098 15.199 24.9493 14.681C25.3054 12.7356 25.4783 10.7611 25.4655 8.7835C25.4783 6.80584 25.3054 4.83135 24.9493 2.886ZM10.7655 12.4585V5.1085L17.1268 8.7835L10.7655 12.4585Z" fill="#2B306A"/>
</svg>
